#!OML:ASF E:\Style6\Style6.ASF
:FULLY-SPECIFIED
:DEGREES
3118
root 1.14425 17.2072 1.12754 12.4843 -13.1688 -3.62651
lowerback 2.32441 -1.82908 1.01642
upperback -8.03799 -2.23725 2.39224
thorax -9.74755 -1.0789 2.21857
lowerneck -7.27632 -13.0549 1.12912
upperneck 4.9677 -17.2298 -5.51704
head 2.20694 -8.75063 -2.58224
rclavicle 3.4601e-014 1.0138e-014
rhumerus -71.3985 15.341 -95.3269
rradius 119.647
rwrist -8.49161
rhand 59.438 -1.14748
rfingers 7.12502
rthumb 74.4689 29.2908
lclavicle 3.4601e-014 1.0138e-014
lhumerus -89.0542 -39.9393 114.981
lradius 119.298
lwrist 59.5417
lhand 1.45085 44.6756
lfingers 7.12502
lthumb 26.9793 72.7692
rfemur -32.782 -4.27994 19.5263
rtibia 41.6733
rfoot -13.5609 3.64725
rtoes -17.9325
lfemur -28.5951 14.3088 -19.8304
ltibia 46.1749
lfoot -21.3666 8.50071
ltoes -19.9425
3119
root 1.14249 17.2082 1.13909 12.4437 -13.2712 -3.5532
lowerback 2.14616 -1.81781 0.918716
upperback -8.03327 -2.23441 2.38241
thorax -9.63201 -1.07193 2.25406
lowerneck -7.37817 -13.0734 1.20886
upperneck 5.15348 -17.2549 -5.56287
head 2.27537 -8.76511 -2.62911
rclavicle -2.30217e-014 4.17448e-015
rhumerus -71.5331 15.6598 -95.1996
rradius 119.732
rwrist -8.50305
rhand 59.1695 -0.975
rfingers 7.12502
rthumb 74.3993 28.5323
lclavicle -2.30217e-014 4.17448e-015
lhumerus -89.213 -40.8928 115.555
lradius 119.278
lwrist 59.5574
lhand 1.67812 44.7884
lfingers 7.12502
lthumb 27.1967 72.8482
rfemur -32.7365 -4.4649 19.4644
rtibia 41.684
rfoot -13.5741 3.92539
rtoes -17.9325
lfemur -28.4962 14.4529 -19.9195
ltibia 46.1741
lfoot -21.4115 8.47631
ltoes -20.2853
3120
root 1.13926 17.2087 1.1528 12.3953 -13.4017 -3.59731
lowerback 1.96493 -1.78872 0.910709
upperback -7.99283 -2.19868 2.4055
thorax -9.47862 -1.05458 2.26968
lowerneck -7.56252 -13.0644 1.27423
upperneck 5.375 -17.2447 -5.53156
head 2.38073 -8.7598 -2.65997
rclavicle -1.68222e-014 -4.57205e-015
rhumerus -71.7587 16.0417 -95.0672
rradius 119.836
rwrist -8.71355
rhand 58.5114 -0.967805
rfingers 7.12502
rthumb 74.211 26.295
lclavicle -1.68222e-014 -4.57205e-015
lhumerus -89.4181 -41.8954 116.133
lradius 119.321
lwrist 59.8965
lhand 1.51613 44.9812
lfingers 7.12502
lthumb 27.0417 73.0651
rfemur -32.6368 -4.60026 19.5189
rtibia 41.688
rfoot -13.6144 4.20691
rtoes -17.8882
lfemur -28.342 14.7006 -19.8706
ltibia 46.154
lfoot -21.5215 8.28727
ltoes -19.7752
3121
root 1.1358 17.2077 1.15804 12.3765 -13.4152 -3.6817
lowerback 1.92184 -1.80213 0.915045
upperback -8.00158 -2.21319 2.46173
thorax -9.46043 -1.05986 2.32696
lowerneck -7.7538 -13.0549 1.33016
upperneck 5.60094 -17.2332 -5.50335
head 2.48992 -8.75389 -2.69153
rclavicle 3.75703e-014 -2.52457e-014
rhumerus -72.075 16.4683 -94.8975
rradius 119.991
rwrist -9.12461
rhand 57.7188 -0.985993
rfingers 7.12502
rthumb 73.9523 23.6498
lclavicle 3.75703e-014 -2.52457e-014
lhumerus -89.7665 -42.855 116.762
lradius 119.383
lwrist 60.3789
lhand 1.09837 45.2583
lfingers 7.12502
lthumb 26.642 73.4036
rfemur -32.5933 -4.78157 19.6468
rtibia 41.7141
rfoot -13.6152 4.43099
rtoes -17.5069
lfemur -28.2583 14.8624 -19.7591
ltibia 46.1086
lfoot -21.5247 8.18873
ltoes -19.8286
3122
root 1.1316 17.2061 1.16276 12.2518 -13.3894 -3.56422
lowerback 1.93551 -1.83435 0.755459
upperback -8.00421 -2.26991 2.42912
thorax -9.46434 -1.07691 2.38764
lowerneck -7.81667 -13.0572 1.39095
upperneck 5.71074 -17.2442 -5.43333
head 2.53914 -8.75596 -2.69211
rclavicle 6.6245e-014 2.22639e-014
rhumerus -72.4684 16.8261 -94.7956
rradius 120.138
rwrist -9.66857
rhand 56.8253 -1.00589
rfingers 7.12502
rthumb 73.6205 20.7763
lclavicle 6.6245e-014 2.22639e-014
lhumerus -90.3603 -43.8022 117.523
lradius 119.437
lwrist 60.7115
lhand 1.26483 46.07
lfingers 7.12502
lthumb 26.8013 74.191
rfemur -32.4888 -5.00821 19.5563
rtibia 41.7567
rfoot -13.6154 4.59689
rtoes -17.2035
lfemur -28.101 14.941 -19.8368
ltibia 46.0516
lfoot -21.4919 8.10997
ltoes -20.3032
3123
root 1.12594 17.206 1.17006 12.0163 -13.4275 -3.3797
lowerback 1.98002 -1.84453 0.509352
upperback -7.94105 -2.30479 2.37125
thorax -9.41152 -1.07828 2.46616
lowerneck -8.01266 -13.0535 1.40523
upperneck 5.8947 -17.2436 -5.31033
head 2.64759 -8.75158 -2.68713
rclavicle -7.82715e-016 -2.62396e-014
rhumerus -72.8099 17.1639 -94.6423
rradius 120.234
rwrist -10.3276
rhand 55.8581 -1.11561
rfingers 7.12502
rthumb 73.2163 17.7151
lclavicle -7.82715e-016 -2.62396e-014
lhumerus -91.1106 -44.7707 118.405
lradius 119.53
lwrist 60.9365
lhand 1.76586 47.0961
lfingers 7.12502
lthumb 27.2806 75.1427
rfemur -32.2833 -5.19675 19.3786
rtibia 41.8066
rfoot -13.6117 4.83609
rtoes -17.0343
lfemur -27.8107 15.0706 -19.964
ltibia 45.9982
lfoot -21.4885 8.03711
ltoes -20.9029
3124
root 1.12115 17.2059 1.17584 11.7882 -13.4872 -3.3421
lowerback 2.10776 -1.84809 0.400552
upperback -7.88796 -2.3153 2.37168
thorax -9.42387 -1.07473 2.53195
lowerneck -8.19457 -13.0182 1.3643
upperneck 6.03845 -17.1977 -5.16293
head 2.7492 -8.72427 -2.66183
rclavicle -4.91992e-014 -2.38542e-015
rhumerus -73.1933 17.5031 -94.452
rradius 120.314
rwrist -11.0415
rhand 54.7823 -1.29275
rfingers 7.12502
rthumb 72.7156 14.4293
lclavicle -4.91992e-014 -2.38542e-015
lhumerus -91.9786 -45.6946 119.389
lradius 119.704
lwrist 61.3042
lhand 1.47848 47.3496
lfingers 7.12502
lthumb 27.0057 75.4391
rfemur -32.0392 -5.30784 19.3401
rtibia 41.845
rfoot -13.6076 5.12841
rtoes -16.0713
lfemur -27.514 15.2412 -19.9215
ltibia 45.9739
lfoot -21.5897 7.76247
ltoes -20.4482
3125
root 1.11709 17.2039 1.17725 11.6953 -13.4167 -3.50975
lowerback 2.2314 -1.88299 0.519368
upperback -7.88576 -2.34731 2.42849
thorax -9.49678 -1.09574 2.53492
lowerneck -8.21993 -12.9477 1.36117
upperneck 5.99016 -17.113 -5.01807
head 2.75429 -8.67598 -2.61404
rclavicle 3.67752e-015 -9.34288e-015
rhumerus -73.6155 17.7796 -94.2588
rradius 120.393
rwrist -11.7366
rhand 53.8557 -1.39583
rfingers 7.12502
rthumb 72.2446 11.7978
lclavicle 3.67752e-015 -9.34288e-015
lhumerus -93.0693 -46.5268 120.591
lradius 119.888
lwrist 61.9511
lhand 0.240159 46.8711
lfingers 7.12502
lthumb 25.8204 75.1386
rfemur -31.8881 -5.43002 19.548
rtibia 41.867
rfoot -13.5955 5.25183
rtoes -15.6268
lfemur -27.3755 15.3332 -19.6717
ltibia 45.9932
lfoot -21.6071 7.66743
ltoes -20.6661
3126
root 1.11422 17.2024 1.17699 11.676 -13.2167 -3.58736
lowerback 2.24416 -1.96462 0.589981
upperback -7.89456 -2.44907 2.46697
thorax -9.512 -1.14905 2.54782
lowerneck -8.28286 -12.8738 1.37632
upperneck 5.97451 -17.0218 -4.92572
head 2.7712 -8.62654 -2.59019
rclavicle 2.80908e-014 1.39149e-015
rhumerus -73.9679 18.0166 -94.0624
rradius 120.392
rwrist -12.4526
rhand 52.9289 -1.53434
rfingers 7.12502
rthumb 71.7397 9.26797
lclavicle 2.80908e-014 1.39149e-015
lhumerus -94.0405 -47.266 121.658
lradius 119.975
lwrist 62.4355
lhand -0.304309 46.5906
lfingers 7.12502
lthumb 25.2989 74.9329
rfemur -31.8342 -5.65706 19.6797
rtibia 41.8782
rfoot -13.5683 5.39628
rtoes -14.9645
lfemur -27.3875 15.2677 -19.533
ltibia 46.0369
lfoot -21.5987 7.59176
ltoes -20.7241
3127
root 1.11339 17.2016 1.17759 11.7363 -13.0204 -3.59843
lowerback 2.13428 -2.0825 0.616361
upperback -7.92294 -2.6042 2.52203
thorax -9.47124 -1.22553 2.60324
lowerneck -8.27734 -12.7798 1.33709
upperneck 5.88265 -16.8973 -4.85845
head 2.75314 -8.56252 -2.554
rclavicle -1.60146e-014 2.50469e-014
rhumerus -74.245 18.349 -93.8935
rradius 120.299
rwrist -13.2441
rhand 51.928 -1.69497
rfingers 7.12502
rthumb 71.1595 6.6762
lclavicle -1.60146e-014 2.50469e-014
lhumerus -94.7121 -47.7598 122.446
lradius 119.898
lwrist 62.5509
lhand -0.0431944 46.5267
lfingers 7.12502
lthumb 25.549 74.8334
rfemur -31.8721 -5.90299 19.7452
rtibia 41.8847
rfoot -13.5948 5.36456
rtoes -15.3083
lfemur -27.5147 15.1625 -19.5047
ltibia 46.0831
lfoot -21.5521 7.54444
ltoes -20.7707
